<svg xmlns="http://www.w3.org/2000/svg" viewBox="0 0 863.53 184.63"><defs><style>.cls-1{fill:#fff;}.cls-2{fill:#049cb0;}</style></defs><g id="Layer_2" data-name="Layer 2"><g id="Layer_1-2" data-name="Layer 1"><path class="cls-1" d="M64.2,64.2h.27a9.37,9.37,0,0,1,9.37,9.37H74a22.58,22.58,0,0,1,19-9.64c18.11,0,27.65,14.56,27.65,28.82a26.91,26.91,0,0,1-26.46,27.34H93.7A21,21,0,0,1,74.9,111h-.17v27.76A10.56,10.56,0,0,1,64.2,128.23Zm28,8.89A18.33,18.33,0,0,0,74.38,91.91a.22.22,0,0,1,0,.08,18.13,18.13,0,1,0,36.26.24A18.84,18.84,0,0,0,92.19,73.09"/><rect class="cls-1" x="130.75" y="47.49" width="10.02" height="71.27"/><path class="cls-1" d="M197.51,118.76v-8.27h-.21a20.51,20.51,0,0,1-18.08,9.6A27.34,27.34,0,0,1,150.9,93.76c0-.51,0-1,0-1.53a27.68,27.68,0,0,1,27-28.33h1.32a21.17,21.17,0,0,1,18.08,8.95h.21V65.4h10v53.36ZM179.22,73.09a18.94,18.94,0,1,0,18.49,19.38v-.24a18.24,18.24,0,0,0-17.41-19c-.36,0-.72,0-1.08,0"/><path class="cls-2" d="M179.22,120.09a32.21,32.21,0,0,1-5.88-.51,85.66,85.66,0,1,1,0-55,32.82,32.82,0,0,1,6-.57h.78a92.28,92.28,0,1,0,.21,56.05Z"/><path class="cls-1" d="M257.7,118.76v-29c0-4.17,0-16.68-13.29-16.68-8.38,0-14.09,5.88-14.09,16.58v29.09h-10V65.4h9.33v5.67h.21A18.91,18.91,0,0,1,245.46,64a21.63,21.63,0,0,1,18.87,9.5,26.18,26.18,0,0,1,3.42,13.67v31.58Z"/><path class="cls-1" d="M354.4,118.76h0a10,10,0,0,1-10-10V74.56h-7.25V65.4h7.25V47.49a10,10,0,0,1,10,10v7.9h8.75v9.13H354.4Z"/><path class="cls-1" d="M332.35,91.31a27.35,27.35,0,0,0-54.69.68,24.32,24.32,0,0,0,0,2.7A28.71,28.71,0,0,0,306.44,120a29.49,29.49,0,0,0,23.25-11.11l-7.8-4.65a20.45,20.45,0,0,1-15.45,6.84,18.81,18.81,0,0,1-18.89-14.63h44.5a50.92,50.92,0,0,0,.3-5.09m-44.43-2.6a17.29,17.29,0,0,1,34.45,0Z"/><path class="cls-2" d="M377.82,113.49a5.4,5.4,0,1,1-5.54-5.26h.2a5.3,5.3,0,0,1,5.37,5.23v0"/><path class="cls-1" d="M455.8,60.77h18.46c16.73,0,28.28,11.48,28.28,26.45v.15c0,15-11.55,26.61-28.28,26.61H455.8Zm18.46,47.66c13.46,0,22.05-9.12,22.05-20.9v-.16c0-11.78-8.59-21.05-22.05-21.05H461.8v42.11Z"/><path class="cls-1" d="M531.19,109.8a16.3,16.3,0,0,0,12.39-5.55l3.65,3.27c-4,4.4-8.74,7.37-16.19,7.37-10.8,0-19.61-8.29-19.61-20.52,0-11.4,8-20.52,18.85-20.52,11.62,0,18.31,9.27,18.31,20.82,0,.53,0,1.14-.07,2H517.35C518.19,105,524.27,109.8,531.19,109.8ZM542.66,92c-.68-7.14-4.78-13.22-12.54-13.22-6.76,0-11.93,5.62-12.77,13.22Z"/><path class="cls-1" d="M552.69,74.68h6.46l13.23,32.61,13.3-32.61H592l-17.1,39.6h-5.17Z"/><path class="cls-1" d="M615.85,109.8a16.27,16.27,0,0,0,12.39-5.55l3.65,3.27c-4,4.4-8.74,7.37-16.19,7.37-10.8,0-19.61-8.29-19.61-20.52,0-11.4,8-20.52,18.85-20.52,11.63,0,18.31,9.27,18.31,20.82,0,.53,0,1.14-.07,2H602C602.85,105,608.93,109.8,615.85,109.8ZM627.33,92c-.69-7.14-4.79-13.22-12.54-13.22C608,78.79,602.85,84.41,602,92Z"/><path class="cls-1" d="M643.66,58.49h5.86V114h-5.86Z"/><path class="cls-1" d="M660.31,94.52v-.15a20.48,20.48,0,0,1,41-.16v.16a20.41,20.41,0,0,1-20.6,20.52A20.12,20.12,0,0,1,660.31,94.52Zm35,0v-.15c0-8.44-6.31-15.36-14.6-15.36-8.51,0-14.36,6.92-14.36,15.2v.16c0,8.43,6.23,15.27,14.52,15.27C689.34,109.64,695.27,102.8,695.27,94.52Z"/><path class="cls-1" d="M711.45,74.68h5.86v7.91c3.19-4.72,7.82-8.74,15-8.74,9.43,0,18.78,7.44,18.78,20.36v.16c0,12.84-9.28,20.44-18.78,20.44-7.29,0-12-4-15-8.36v19.69h-5.86Zm33.67,19.76v-.15c0-9.27-6.38-15.2-13.83-15.2-7.3,0-14.21,6.16-14.21,15.12v.16c0,9.12,6.91,15.2,14.21,15.2C738.89,109.57,745.12,103.94,745.12,94.44Z"/><path class="cls-1" d="M778.86,109.8a16.27,16.27,0,0,0,12.39-5.55l3.65,3.27c-3.95,4.4-8.74,7.37-16.19,7.37-10.79,0-19.61-8.29-19.61-20.52,0-11.4,8-20.52,18.85-20.52,11.63,0,18.32,9.27,18.32,20.82,0,.53,0,1.14-.08,2H765C765.87,105,772,109.8,778.86,109.8ZM790.34,92c-.68-7.14-4.79-13.22-12.54-13.22C771,78.79,765.87,84.41,765,92Z"/><path class="cls-1" d="M806.15,74.68H812V84.94c2.89-6.53,8.59-11.25,16-10.94v6.31h-.46c-8.59,0-15.58,6.15-15.58,18V114h-5.85Z"/><path class="cls-1" d="M833.28,109l3-4.18a23,23,0,0,0,13.61,5c4.71,0,8.13-2.44,8.13-6.24v-.15c0-4-4.64-5.47-9.81-6.91-6.15-1.75-13-3.88-13-11.1v-.15c0-6.77,5.62-11.25,13.38-11.25a26.87,26.87,0,0,1,14.13,4.33L860,82.74a22.19,22.19,0,0,0-11.63-3.8c-4.63,0-7.6,2.43-7.6,5.7v.15c0,3.72,4.87,5.17,10.11,6.76,6.08,1.83,12.62,4.19,12.62,11.25V103c0,7.44-6.16,11.78-14,11.78A27,27,0,0,1,833.28,109Z"/><path class="cls-1" d="M415.34,156.69a1,1,0,0,1-1-1V29.24a1,1,0,0,1,2,0V155.69A1,1,0,0,1,415.34,156.69Z"/></g></g></svg>